<svg display="none" xmlns="http://www.w3.org/2000/svg">
    <symbol id="home" viewBox="0 0 300.005 300.005">
        <path d="M150,0C67.159,0,0.002,67.162,0.002,150S67.159,300.005,150,300.005c82.843,0,150.003-67.165,150.003-150.005
				S232.843,0,150,0z M232.17,222.642h-0.006c0,8.139-6.601,14.74-14.742,14.74h-9.114v-63.759h-43.054v63.757H81.085
				c-8.139,0-14.74-6.601-14.74-14.74v-76.471c7.374-0.576,13.985-3.911,18.757-9.008c5.257,5.615,12.732,9.127,21.014,9.127
				c8.282,0,15.756-3.512,21.014-9.127c5.257,5.615,12.735,9.127,21.016,9.127s15.756-3.512,21.014-9.127
				c5.257,5.615,12.732,9.127,21.014,9.127c8.282,0,15.754-3.512,21.014-9.127c5.25,5.607,12.714,9.117,20.982,9.127V222.642z
				 M232.195,130.727c-7.296,0-13.233-5.937-13.233-13.233c0-4.298-3.483-7.781-7.781-7.781c-4.298,0-7.781,3.483-7.781,7.781
				c0,7.296-5.934,13.233-13.233,13.233s-13.233-5.937-13.233-13.233c0-4.298-3.483-7.781-7.781-7.781
				c-4.298,0-7.781,3.483-7.781,7.781c0,7.296-5.937,13.233-13.233,13.233s-13.235-5.937-13.235-13.233
				c0-4.298-3.483-7.781-7.781-7.781c-4.298,0-7.781,3.483-7.781,7.781c0,7.296-5.937,13.233-13.233,13.233
				c-7.296,0-13.233-5.937-13.233-13.233c0-4.298-3.483-7.781-7.781-7.781c-4.298,0-7.781,3.483-7.781,7.781
				c0,7.296-5.937,13.233-13.235,13.233c-6.515,0-11.944-4.733-13.033-10.94l40.168-54.438h116.521l37.587,53.766
				C244.53,125.651,238.943,130.727,232.195,130.727z"/>
    </symbol>
    <symbol viewBox="0 0 24 24" id="cart">
        <path d="M21.822 7.431A1 1 0 0 0 21 7H7.333L6.179 4.23A1.994 1.994 0 0 0 4.333 3H2v2h2.333l4.744 11.385A1 1 0 0 0 10 17h8c.417 0 .79-.259.937-.648l3-8a1 1 0 0 0-.115-.921z"/>
        <circle cx="10.5" cy="19.5" r="1.5"/><circle cx="17.5" cy="19.5" r="1.5"/>
    </symbol>
</svg>